<?xml version="1.0" standalone="no"?>
<svg xmlns:xlink="http://www.w3.org/1999/xlink" id="wave" style="transform:rotate(0deg); transition: 0.3s" viewBox="0 0 1440 490" version="1.1" xmlns="http://www.w3.org/2000/svg"><defs><linearGradient id="sw-gradient-0" x1="0" x2="0" y1="1" y2="0"><stop stop-color="rgba(1, 196, 237, 1)" offset="0%"/><stop stop-color="rgba(255, 149.095, 149.095, 1)" offset="100%"/></linearGradient></defs><path style="transform:translate(0, 0px); opacity:1" fill="url(#sw-gradient-0)" d="M0,392L60,392C120,392,240,392,360,367.5C480,343,600,294,720,261.3C840,229,960,212,1080,245C1200,278,1320,359,1440,326.7C1560,294,1680,147,1800,114.3C1920,82,2040,163,2160,236.8C2280,310,2400,376,2520,359.3C2640,343,2760,245,2880,179.7C3000,114,3120,82,3240,122.5C3360,163,3480,278,3600,326.7C3720,376,3840,359,3960,326.7C4080,294,4200,245,4320,204.2C4440,163,4560,131,4680,122.5C4800,114,4920,131,5040,171.5C5160,212,5280,278,5400,302.2C5520,327,5640,310,5760,261.3C5880,212,6000,131,6120,155.2C6240,180,6360,310,6480,326.7C6600,343,6720,245,6840,204.2C6960,163,7080,180,7200,228.7C7320,278,7440,359,7560,326.7C7680,294,7800,147,7920,138.8C8040,131,8160,261,8280,285.8C8400,310,8520,229,8580,187.8L8640,147L8640,490L8580,490C8520,490,8400,490,8280,490C8160,490,8040,490,7920,490C7800,490,7680,490,7560,490C7440,490,7320,490,7200,490C7080,490,6960,490,6840,490C6720,490,6600,490,6480,490C6360,490,6240,490,6120,490C6000,490,5880,490,5760,490C5640,490,5520,490,5400,490C5280,490,5160,490,5040,490C4920,490,4800,490,4680,490C4560,490,4440,490,4320,490C4200,490,4080,490,3960,490C3840,490,3720,490,3600,490C3480,490,3360,490,3240,490C3120,490,3000,490,2880,490C2760,490,2640,490,2520,490C2400,490,2280,490,2160,490C2040,490,1920,490,1800,490C1680,490,1560,490,1440,490C1320,490,1200,490,1080,490C960,490,840,490,720,490C600,490,480,490,360,490C240,490,120,490,60,490L0,490Z"/></svg>